HIERARCHY
ROOT Hips
{
	OFFSET 0.000000 0.000000 0.000000
	CHANNELS 6 Xposition Yposition Zposition Zrotation Yrotation Xrotation 
	JOINT LowerBack
	{
		OFFSET 0.000000 0.000000 0.000000
		CHANNELS 3 Zrotation Yrotation Xrotation
		JOINT Spine
		{
			OFFSET 0.028270 2.035590 -0.193380
			CHANNELS 3 Zrotation Yrotation Xrotation
			JOINT Spine1
			{
				OFFSET 0.056720 2.048850 -0.042750
				CHANNELS 3 Zrotation Yrotation Xrotation
				JOINT Neck
				{
					OFFSET 0.000000 0.000000 0.000000
					CHANNELS 3 Zrotation Yrotation Xrotation
					JOINT Neck1
					{
						OFFSET -0.054170 1.746240 0.172020
						CHANNELS 3 Zrotation Yrotation Xrotation
						JOINT Head
						{
							OFFSET 0.104070 1.761360 -0.123970
							CHANNELS 3 Zrotation Yrotation Xrotation
							End Site
							{
								OFFSET 0.000000 0.000000 0.000000
							}
						}
					}
				}
				JOINT LeftShoulder
				{
					OFFSET 0.000000 0.000000 0.000000
					CHANNELS 3 Zrotation Yrotation Xrotation
					JOINT LeftArm
					{
						OFFSET 3.362410 1.200890 -0.311210
						CHANNELS 3 Zrotation Yrotation Xrotation
						JOINT LeftForeArm
						{
							OFFSET 4.983000 -0.000000 -0.000000
							CHANNELS 3 Zrotation Yrotation Xrotation
							JOINT LeftHand
							{
								OFFSET 3.483560 -0.000000 -0.000000
								CHANNELS 3 Zrotation Yrotation Xrotation
								JOINT LeftFingerBase
								{
									OFFSET 0.000000 0.000000 0.000000
									CHANNELS 3 Zrotation Yrotation Xrotation
									JOINT LeftHandIndex1
									{
										OFFSET 0.715260 -0.000000 -0.000000
										CHANNELS 3 Zrotation Yrotation Xrotation
										End Site
										{
											OFFSET 0.000000 0.000000 0.000000
										}
									}
								}
								JOINT LThumb
								{
									OFFSET 0.000000 0.000000 0.000000
									CHANNELS 3 Zrotation Yrotation Xrotation
									End Site
									{
										OFFSET 0.000000 0.000000 0.000000
									}
								}
							}
						}
					}
				}
				JOINT RightShoulder
				{
					OFFSET 0.000000 0.000000 0.000000
					CHANNELS 3 Zrotation Yrotation Xrotation
					JOINT RightArm
					{
						OFFSET -3.136600 1.374050 -0.404650
						CHANNELS 3 Zrotation Yrotation Xrotation
						JOINT RightForeArm
						{
							OFFSET -5.241900 -0.000000 -0.000000
							CHANNELS 3 Zrotation Yrotation Xrotation
							JOINT RightHand
							{
								OFFSET -3.444170 -0.000000 -0.000000
								CHANNELS 3 Zrotation Yrotation Xrotation
								JOINT RightFingerBase
								{
									OFFSET 0.000000 0.000000 0.000000
									CHANNELS 3 Zrotation Yrotation Xrotation
									JOINT RightHandIndex1
									{
										OFFSET -0.622530 -0.000000 -0.000000
										CHANNELS 3 Zrotation Yrotation Xrotation
										End Site
										{
											OFFSET 0.000000 0.000000 0.000000
										}
									}
								}
								JOINT RThumb
								{
									OFFSET 0.000000 0.000000 0.000000
									CHANNELS 3 Zrotation Yrotation Xrotation
									End Site
									{
										OFFSET 0.000000 0.000000 0.000000
									}
								}
							}
						}
					}
				}
			}
		}
	}
}
}
MOTION
Frames: 17
Frame Time: 0.008333
-4.716622 16.793941 -1.786408 52.491166 77.996767 71.408442 0.075418 -3.272022 -5.127316 -0.463579 -3.432984 -3.554249 -6.246612 -3.369996 1.097154 4.203984 -14.618875 -7.414248 -3.879423 -0.297639 0.043252 0.000000 0.000000 0.000000 0.225897 7.921838 0.486523 -45.154506 -15.169828 11.055815 -178.897724 -76.489774 179.958569 5.803158 1.201291 0.044609 -0.263146 0.436212 -0.000000 0.000000 0.000000 0.000000 0.000000 0.000000 0.000000 9.897671 -10.663149 -0.770235 65.713383 -2.239851 18.655411 179.830616 89.636731 -179.967841 7.292817 2.231424 0.163243 -0.116257 -0.280809 -0.000000 0.000000 0.000000 0.000000 0.000000 0.000000 0.000000 
-4.548947 16.735900 -1.727779 50.712302 77.428077 69.369053 0.220117 -3.150957 -5.218373 -0.454890 -3.329587 -3.574645 -6.296880 -3.266168 1.097994 3.963663 -14.328017 -7.324399 -3.968347 -0.305361 0.061396 0.000000 0.000000 0.000000 -0.274737 8.246343 0.491752 -45.042294 -14.979248 10.197682 -178.898203 -76.731961 179.958586 5.931051 0.950696 0.031884 -0.267766 0.438474 -0.000000 0.000000 0.000000 0.000000 0.000000 0.000000 0.000000 9.988603 -10.284524 -0.874964 66.287673 -2.395624 16.785708 -0.129068 89.683327 0.031444 7.087147 2.573531 0.180500 -0.111944 -0.286323 -0.000000 0.000000 0.000000 0.000000 0.000000 0.000000 0.000000 
-4.385476 16.686843 -1.669440 48.792140 76.895245 67.149033 0.415432 -3.035149 -5.246024 -0.433399 -3.233911 -3.585089 -6.337455 -3.171148 1.094147 3.752252 -13.950632 -7.199025 -4.059850 -0.313386 0.088036 0.000000 0.000000 0.000000 -0.726107 8.590379 0.485490 -45.265516 -14.721493 9.338762 -178.915922 -77.175348 179.958253 6.110979 0.729139 0.020455 -0.272761 0.439169 -0.000000 0.000000 0.000000 0.000000 0.000000 0.000000 0.000000 10.108423 -9.844645 -0.983639 66.976743 -2.444282 14.723245 -0.074622 88.741004 0.030335 6.798044 2.980722 0.198163 -0.105861 -0.292146 -0.000000 0.000000 0.000000 0.000000 0.000000 0.000000 0.000000 
-4.226505 16.648056 -1.611112 46.781522 76.421365 64.813812 0.667251 -2.931862 -5.221168 -0.396700 -3.153650 -3.587426 -6.366970 -3.092652 1.087726 3.585073 -13.502531 -7.040565 -4.151826 -0.321516 0.123057 0.000000 0.000000 0.000000 -1.114413 8.942355 0.465120 -45.839166 -14.385811 8.482487 -178.952765 -77.811622 179.957439 6.352706 0.562541 0.011521 -0.278077 0.437713 -0.000000 0.000000 0.000000 0.000000 0.000000 0.000000 0.000000 10.264930 -9.367862 -1.096052 67.767337 -2.363788 12.491524 -0.008160 87.548356 0.028659 6.377323 3.435826 0.212034 -0.097310 -0.298037 -0.000000 0.000000 0.000000 0.000000 0.000000 0.000000 0.000000 
-4.072160 16.620110 -1.552350 44.741706 76.021119 62.442068 0.970010 -2.848348 -5.160751 -0.345112 -3.095699 -3.584052 -6.384726 -3.037497 1.082310 3.477514 -13.010350 -6.855472 -4.241277 -0.329480 0.165388 0.000000 0.000000 0.000000 -1.430144 9.291921 0.428154 -46.752586 -13.968781 7.630257 -179.010044 -78.626053 179.956029 6.665581 0.471838 0.006677 -0.283574 0.433734 -0.000000 0.000000 0.000000 0.000000 0.000000 0.000000 0.000000 10.464938 -8.887845 -1.212584 68.639503 -2.135473 10.134318 0.066908 86.133413 0.026194 5.763071 3.920178 0.216712 -0.085525 -0.303848 -0.000000 0.000000 0.000000 0.000000 0.000000 0.000000 0.000000 
-3.922482 16.602805 -1.492424 42.758020 75.698638 60.132750 1.301177 -2.792152 -5.080653 -0.282919 -3.065908 -3.576955 -6.391195 -3.011400 1.080701 3.443848 -12.504818 -6.651311 -4.325023 -0.337011 0.213675 0.000000 0.000000 0.000000 -1.664036 9.624615 0.372957 -47.970871 -13.469016 6.781051 -179.087931 -79.595752 179.953931 7.057666 0.472001 0.007320 -0.288991 0.427094 -0.000000 0.000000 0.000000 0.000000 0.000000 0.000000 0.000000 10.714350 -8.440456 -1.333804 69.571056 -1.752450 7.710761 0.145919 84.540430 0.022673 4.883718 4.413725 0.205296 -0.069806 -0.309528 0.000000 0.000000 0.000000 0.000000 0.000000 0.000000 0.000000 
-3.777474 16.595371 -1.430473 40.925632 75.452382 57.988915 1.630503 -2.769453 -4.993689 -0.216438 -3.068221 -3.567501 -6.387994 -3.018152 1.084883 3.495052 -12.018082 -6.436930 -4.399969 -0.343863 0.266150 0.000000 0.000000 0.000000 -1.811216 9.925017 0.299515 -49.434652 -12.889530 5.933931 -179.184968 -80.691110 179.951100 7.535166 0.569657 0.014842 -0.294038 0.417912 0.000000 0.000000 0.000000 0.000000 0.000000 0.000000 0.000000 11.016763 -8.060199 -1.459913 70.537444 -1.220400 5.292762 0.223211 82.826544 0.017786 3.664851 4.897859 0.170186 -0.049592 -0.315092 0.000000 0.000000 0.000000 0.000000 0.000000 0.000000 0.000000 
-3.637075 16.596660 -1.365730 39.338425 75.277111 56.107849 1.925385 -2.784773 -4.909456 -0.152740 -3.104855 -3.556182 -6.377798 -3.059786 1.097317 3.637258 -11.582361 -6.223472 -4.463360 -0.349812 0.320255 0.000000 0.000000 0.000000 -1.875143 10.183248 0.209825 -51.065882 -12.245038 5.093666 -179.297694 -81.879566 179.947574 8.099321 0.763045 0.030638 -0.298478 0.406516 -0.000000 0.000000 0.000000 0.000000 0.000000 0.000000 0.000000 11.373175 -7.778716 -1.590662 71.513413 -0.555596 2.963004 0.292689 81.056301 0.011204 2.038873 5.353860 0.103378 -0.024522 -0.320486 0.000000 0.000000 0.000000 0.000000 0.000000 0.000000 0.000000 
-3.501186 16.605356 -1.297563 38.076157 75.165751 54.569204 2.157461 -2.839969 -4.833870 -0.098166 -3.175745 -3.543489 -6.363423 -3.136142 1.118005 3.868805 -11.223299 -6.020638 -4.513226 -0.354716 0.373648 0.000000 0.000000 0.000000 -1.865509 10.383353 0.107872 -52.777647 -11.540339 4.267267 -179.420717 -83.120148 179.943456 8.744073 1.041897 0.055708 -0.302080 0.393334 0.000000 0.000000 0.000000 0.000000 0.000000 0.000000 0.000000 11.777743 -7.617777 -1.723577 72.477846 0.213009 0.804229 0.348708 79.295158 0.002654 -0.037777 5.761619 -0.001131 0.005417 -0.325484 0.000000 0.000000 0.000000 0.000000 0.000000 0.000000 0.000000 
-3.369551 16.620321 -1.225947 37.159569 75.114623 53.392751 2.318060 -2.932713 -4.768490 -0.055268 -3.278216 -3.528800 -6.348077 -3.244306 1.148941 4.181233 -10.957125 -5.840251 -4.548213 -0.358428 0.423069 0.000000 0.000000 0.000000 -1.806774 10.533055 -0.000132 -54.482783 -10.810603 3.481414 -179.548003 -84.383375 179.938989 9.454284 1.388092 0.090449 -0.304883 0.378942 -0.000000 0.000000 0.000000 0.000000 0.000000 0.000000 0.000000 12.220161 -7.585893 -1.856126 73.405511 1.050423 -1.102634 0.386807 77.608311 -0.008000 -2.575174 6.093067 -0.145546 0.039829 -0.329539 0.000000 0.000000 0.000000 0.000000 0.000000 0.000000 0.000000 
-3.241914 16.640350 -1.150587 36.636012 75.105485 52.626415 2.387056 -3.060269 -4.717185 -0.028518 -3.408299 -3.512792 -6.332946 -3.380334 1.188853 4.560317 -10.798448 -5.690250 -4.567613 -0.360904 0.466299 0.000000 0.000000 0.000000 -1.714712 10.616442 -0.109185 -56.104471 -10.048933 2.755903 -179.672864 -85.624812 179.934493 10.202350 1.778478 0.134264 -0.306683 0.363791 0.000000 0.000000 0.000000 0.000000 0.000000 0.000000 0.000000 12.684502 -7.688265 -1.982103 74.285473 1.922290 -2.686088 0.405594 76.040914 -0.020560 -5.525023 6.315801 -0.324371 0.077731 -0.331848 0.000000 0.000000 0.000000 0.000000 0.000000 0.000000 0.000000 
-3.117848 16.664719 -1.072121 36.448005 75.127689 52.216095 2.376941 -3.213767 -4.680270 -0.016199 -3.558423 -3.495966 -6.319595 -3.536485 1.236113 4.987311 -10.737820 -5.575360 -4.571946 -0.362152 0.501652 0.000000 0.000000 0.000000 -1.616781 10.646462 -0.212390 -57.584373 -9.281926 2.130977 -179.790286 -86.822368 179.930313 10.951180 2.186495 0.185259 -0.307559 0.348431 -0.000000 0.000000 0.000000 0.000000 0.000000 0.000000 0.000000 13.152691 -7.901783 -2.096644 75.096533 2.782905 -3.898738 0.405657 74.639259 -0.034485 -8.787660 6.386321 -0.522305 0.117550 -0.331470 0.000000 0.000000 0.000000 0.000000 0.000000 0.000000 0.000000 
-2.997029 16.692772 -0.990955 36.548369 75.157921 52.119967 2.291299 -3.384322 -4.660019 -0.017900 -3.720221 -3.479289 -6.307052 -3.704344 1.288740 5.441106 -10.775110 -5.498738 -4.561543 -0.362189 0.527941 0.000000 0.000000 0.000000 -1.532118 10.620740 -0.305828 -58.880957 -8.505775 1.635439 -179.896134 -87.947245 179.926679 11.654135 2.587199 0.240040 -0.307324 0.333242 -0.000000 0.000000 0.000000 0.000000 0.000000 0.000000 0.000000 13.604116 -8.212592 -2.193651 75.828259 3.609527 -4.702042 0.391283 73.415280 -0.048828 -12.205107 6.266463 -0.713454 0.157289 -0.327625 0.000000 0.000000 0.000000 0.000000 0.000000 0.000000 0.000000 
-2.879059 16.724166 -0.907813 36.840574 75.173049 52.248453 2.144017 -3.560208 -4.658228 -0.031448 -3.883251 -3.464454 -6.294792 -3.873384 1.342047 5.902528 -10.889653 -5.456915 -4.538041 -0.361151 0.545681 0.000000 0.000000 0.000000 -1.476343 10.547175 -0.385248 -59.973482 -7.725637 1.299930 -179.988854 -88.986226 179.924326 12.261413 2.957338 0.294315 -0.305848 0.318599 -0.000000 0.000000 0.000000 0.000000 0.000000 0.000000 0.000000 14.023310 -8.584483 -2.269413 76.463202 4.371260 -5.089669 0.367803 72.378706 -0.062495 -15.585479 5.925602 -0.864716 0.194783 -0.319979 -0.000000 0.000000 0.000000 0.000000 0.000000 0.000000 0.000000 
-2.763650 16.758718 -0.823491 37.201211 75.149868 52.485433 1.953123 -3.729370 -4.675641 -0.053611 -4.036930 -3.452732 -6.281120 -4.032903 1.392548 6.353368 -11.068725 -5.446152 -4.502882 -0.359150 0.555522 0.000000 0.000000 0.000000 -1.463824 10.434054 -0.448417 -60.856382 -6.943053 1.144284 179.932499 -89.930749 179.923082 12.722122 3.278852 0.343087 -0.302892 0.304769 -0.000000 0.000000 0.000000 0.000000 0.000000 0.000000 0.000000 14.396580 -8.990525 -2.322133 76.985083 5.061016 -5.063822 0.341620 71.514505 -0.074461 -18.726530 5.355619 -0.944386 0.228218 -0.308792 -0.000000 0.000000 0.000000 0.000000 0.000000 0.000000 0.000000 
-2.650570 16.796415 -0.738905 37.484721 75.069809 52.689933 1.740387 -3.879330 -4.710957 -0.080884 -4.170471 -3.446275 -6.266042 -4.172047 1.431950 6.780701 -11.270706 -5.453434 -4.458921 -0.356457 0.560596 0.000000 0.000000 0.000000 -1.500000 10.294069 -0.491649 -61.540830 -6.163101 1.180816 -0.133132 -89.214868 -0.076759 12.990743 3.536973 0.381462 -0.298247 0.292018 -0.000000 0.000000 0.000000 0.000000 0.000000 0.000000 0.000000 14.716936 -9.375286 -2.352803 77.375102 5.651165 -4.669755 0.317584 70.820955 -0.084061 -21.434234 4.570284 -0.930467 0.256195 -0.294921 -0.000000 0.000000 0.000000 0.000000 0.000000 0.000000 0.000000 
-2.539739 16.837156 -0.654582 37.594151 74.913243 52.765731 1.515064 -4.002094 -4.761596 -0.111556 -4.276434 -3.444908 -6.247535 -4.283254 1.459690 7.176095 -11.496104 -5.475660 -4.407614 -0.353182 0.561537 0.000000 0.000000 0.000000 -1.588291 10.135150 -0.515918 -62.042217 -5.385848 1.402890 -0.186917 -88.450354 -0.075112 13.029389 3.723375 0.405439 -0.291583 0.280442 -0.000000 0.000000 0.000000 0.000000 0.000000 0.000000 0.000000 14.983826 -9.731329 -2.363543 77.623259 6.169078 -3.924944 0.300977 70.258125 -0.090961 -23.550541 3.616290 -0.820051 0.278156 -0.279528 -0.000000 0.000000 0.000000 0.000000 0.000000 0.000000 0.000000 
